<svg width="235" height="57" viewBox="0 0 235 57" fill="none" xmlns="http://www.w3.org/2000/svg">
<path d="M71.854 20.53V25.926H80.556V30.942H71.854V36.794H81.696V42H65.356V15.324H81.696V20.53H71.854ZM98.8346 20.568C101.317 20.568 103.293 21.3787 104.763 23C106.257 24.596 107.005 26.8 107.005 29.612V42H100.545V30.486C100.545 29.0673 100.177 27.9653 99.4426 27.18C98.7079 26.3947 97.7199 26.002 96.4786 26.002C95.2373 26.002 94.2493 26.3947 93.5146 27.18C92.7799 27.9653 92.4126 29.0673 92.4126 30.486V42H85.9146V20.796H92.4126V23.608C93.0713 22.6707 93.9579 21.936 95.0726 21.404C96.1873 20.8467 97.4413 20.568 98.8346 20.568ZM118.018 13.88V42H111.52V13.88H118.018ZM125.995 18.592C124.855 18.592 123.918 18.2627 123.183 17.604C122.474 16.92 122.119 16.084 122.119 15.096C122.119 14.0827 122.474 13.2467 123.183 12.588C123.918 11.904 124.855 11.562 125.995 11.562C127.11 11.562 128.022 11.904 128.731 12.588C129.466 13.2467 129.833 14.0827 129.833 15.096C129.833 16.084 129.466 16.92 128.731 17.604C128.022 18.2627 127.11 18.592 125.995 18.592ZM129.225 20.796V42H122.727V20.796H129.225ZM142.56 42.304C140.711 42.304 139.064 41.9873 137.62 41.354C136.176 40.7207 135.036 39.8593 134.2 38.77C133.364 37.6553 132.895 36.414 132.794 35.046H139.216C139.292 35.7807 139.634 36.376 140.242 36.832C140.85 37.288 141.597 37.516 142.484 37.516C143.295 37.516 143.915 37.364 144.346 37.06C144.802 36.7307 145.03 36.3127 145.03 35.806C145.03 35.198 144.713 34.7547 144.08 34.476C143.447 34.172 142.421 33.8427 141.002 33.488C139.482 33.1333 138.215 32.766 137.202 32.386C136.189 31.9807 135.315 31.36 134.58 30.524C133.845 29.6627 133.478 28.51 133.478 27.066C133.478 25.85 133.807 24.748 134.466 23.76C135.15 22.7467 136.138 21.9487 137.43 21.366C138.747 20.7833 140.305 20.492 142.104 20.492C144.764 20.492 146.854 21.1507 148.374 22.468C149.919 23.7853 150.806 25.5333 151.034 27.712H145.03C144.929 26.9773 144.599 26.3947 144.042 25.964C143.51 25.5333 142.801 25.318 141.914 25.318C141.154 25.318 140.571 25.47 140.166 25.774C139.761 26.0527 139.558 26.4453 139.558 26.952C139.558 27.56 139.875 28.016 140.508 28.32C141.167 28.624 142.18 28.928 143.548 29.232C145.119 29.6373 146.398 30.0427 147.386 30.448C148.374 30.828 149.235 31.4613 149.97 32.348C150.73 33.2093 151.123 34.3747 151.148 35.844C151.148 37.0853 150.793 38.2 150.084 39.188C149.4 40.1507 148.399 40.9107 147.082 41.468C145.79 42.0253 144.283 42.304 142.56 42.304ZM166.942 36.49V42H163.636C161.28 42 159.443 41.43 158.126 40.29C156.808 39.1247 156.15 37.2373 156.15 34.628V26.192H153.566V20.796H156.15V15.628H162.648V20.796H166.904V26.192H162.648V34.704C162.648 35.3373 162.8 35.7933 163.104 36.072C163.408 36.3507 163.914 36.49 164.624 36.49H166.942ZM208.824 15.324V42H202.326V26.002L196.36 42H191.116L185.112 25.964V42H178.614V15.324H186.29L193.776 33.792L201.186 15.324H208.824ZM233.485 31.056C233.485 31.664 233.447 32.2973 233.371 32.956H218.665C218.766 34.2733 219.184 35.2867 219.919 35.996C220.679 36.68 221.603 37.022 222.693 37.022C224.314 37.022 225.441 36.338 226.075 34.97H232.991C232.636 36.3633 231.99 37.6173 231.053 38.732C230.141 39.8467 228.988 40.7207 227.595 41.354C226.201 41.9873 224.643 42.304 222.921 42.304C220.843 42.304 218.994 41.8607 217.373 40.974C215.751 40.0873 214.485 38.8207 213.573 37.174C212.661 35.5273 212.205 33.602 212.205 31.398C212.205 29.194 212.648 27.2687 213.535 25.622C214.447 23.9753 215.713 22.7087 217.335 21.822C218.956 20.9353 220.818 20.492 222.921 20.492C224.973 20.492 226.797 20.9227 228.393 21.784C229.989 22.6453 231.23 23.874 232.117 25.47C233.029 27.066 233.485 28.928 233.485 31.056ZM226.835 29.346C226.835 28.2313 226.455 27.3447 225.695 26.686C224.935 26.0273 223.985 25.698 222.845 25.698C221.755 25.698 220.831 26.0147 220.071 26.648C219.336 27.2813 218.88 28.1807 218.703 29.346H226.835Z" fill="#2262C6"/>
<path d="M19.3229 31.8125C18.1083 33.1375 16.3417 34.0209 14.3542 34.0209H11.0417C7.39792 34.0209 4.41667 31.0396 4.41667 27.3959C4.41667 23.7521 7.39792 20.7709 11.0417 20.7709H14.3542C16.3417 20.7709 18.1083 21.6542 19.3229 22.9792H24.5125C22.8563 19.1146 18.8812 16.3542 14.3542 16.3542H11.0417C4.96875 16.3542 0 21.3229 0 27.3959C0 33.4688 4.96875 38.4375 11.0417 38.4375H14.3542C18.8812 38.4375 22.7458 35.6771 24.5125 31.8125H19.3229Z" fill="#1976D2"/>
<path d="M41.9581 16.3542H38.6456C34.1186 16.3542 30.254 19.1146 28.4873 22.9792H33.6769C34.8915 21.6542 36.6581 20.7709 38.6456 20.7709H41.9581C45.6019 20.7709 48.5831 23.7521 48.5831 27.3959C48.5831 31.0396 45.6019 34.0209 41.9581 34.0209H38.6456C36.6581 34.0209 34.8915 33.1375 33.6769 31.8125H28.4873C30.1436 35.6771 34.1186 38.4375 38.6456 38.4375H41.9581C48.0311 38.4375 52.9998 33.4688 52.9998 27.3959C52.9998 21.3229 48.0311 16.3542 41.9581 16.3542Z" fill="#1976D2"/>
<path d="M21.5311 6.41669L17.6665 8.62502L24.4019 17.5688L25.8373 16.6854L21.5311 6.41669Z" fill="#00BCD4"/>
<path d="M31.4684 6.41669L35.3329 8.62502L28.5975 17.5688L27.1621 16.6854L31.4684 6.41669Z" fill="#00BCD4"/>
<path d="M31.4684 50.5834L35.3329 48.375L28.5975 39.4313L27.1621 40.3146L31.4684 50.5834Z" fill="#00BCD4"/>
<path d="M21.5311 50.5834L17.6665 48.375L24.4019 39.4313L25.8373 40.3146L21.5311 50.5834Z" fill="#00BCD4"/>
</svg>
